<svg width="8" height="16" viewBox="0 0 8 16" fill="none" xmlns="http://www.w3.org/2000/svg">
<path d="M6.02768 0C7.07289 0 7.59548 0.71136 7.59548 1.52646C7.59548 2.54436 6.68756 3.48582 5.50586 3.48582C4.51604 3.48582 3.93884 2.90082 3.96614 1.93362C3.96614 1.12008 4.65333 0 6.02768 0ZM2.81174 15.6C1.9865 15.6 1.382 15.0914 1.9592 12.8513L2.90612 8.87952C3.0707 8.2446 3.098 7.98954 2.90612 7.98954C2.65886 7.98954 1.5887 8.4279 0.954565 8.8608L0.542725 8.1744C2.54888 6.46932 4.8569 5.47014 5.84751 5.47014C6.67197 5.47014 6.80925 6.46308 6.3974 7.98954L5.31243 12.1641C5.12054 12.9012 5.20245 13.1555 5.3951 13.1555C5.64236 13.1555 6.45357 12.8497 7.25073 12.214L7.71873 12.8489C5.76717 14.8356 3.63542 15.6 2.81174 15.6Z" fill="#624D37"/>
</svg>
