<svg width="93" height="102" viewBox="0 0 93 102" fill="none" xmlns="http://www.w3.org/2000/svg">
<path d="M65 37.48H73.8C79.5067 37.48 83.9867 39.08 87.24 42.28C90.5467 45.4267 92.2 49.6667 92.2 55C92.2 60.3867 90.5467 64.7333 87.24 68.04C83.9333 71.3467 79.4533 73 73.8 73H49V17H87.4V32.52H65V37.48ZM65 58.6H72.6C74.0933 58.76 75.1333 58.2 75.72 56.92C76.36 55.64 76.36 54.36 75.72 53.08C75.1333 51.8 74.0933 51.24 72.6 51.4H65V58.6Z" fill="#DBAA11"/>
<path d="M54.6 73H37.4L35.48 65.8H19.32L17.4 73H0.2L18.04 17H36.76L54.6 73ZM27.4 35.8L22.76 53H32.04L27.4 35.8Z" fill="#E9E8E3"/>
</svg>
